#!OML:ASF F:\VICON\USERDATA\INSTALL\rory3\rory3.ASF
:FULLY-SPECIFIED
:DEGREES
376
root 4.7168 16.7297 2.22682 10.5579 -8.85164 -1.17582
lowerback 2.90552 -0.470041 -0.849787
upperback 0.108398 -0.667065 -0.765968
thorax -1.51672 -0.329724 -0.28068
lowerneck -11.7824 -0.371839 -1.25402
upperneck 38.0166 -0.535099 0.425617
head 15.2737 -0.417449 0.30025
rclavicle -2.3556e-014 -5.1684e-015
rhumerus 3.20218 27.8759 -62.3613
rradius 100.375
rwrist -35.3021
rhand -6.0079 -42.1726
rfingers 7.12502
rthumb 19.8248 -71.1816
lclavicle -2.3556e-014 -5.1684e-015
lhumerus 19.7276 -26.0297 53.2319
lradius 85.6119
lwrist 57.8552
lhand -22.7654 -23.2165
lfingers 7.12502
lthumb 3.66961 6.73162
rfemur -56.8653 0.561289 17.9113
rtibia 31.3599
rfoot 37.4846 -2.67258
rtoes 4.87628
lfemur -33.1554 3.73162 -29.3045
ltibia 43.319
lfoot -19.2285 2.08723
ltoes 13.305
377
root 4.71402 16.7256 2.23186 10.5603 -8.53727 -1.14947
lowerback 2.62096 -0.573442 -0.8257
upperback 0.342155 -0.797114 -0.745692
thorax -1.11764 -0.396153 -0.272615
lowerneck -11.9474 -0.465249 -1.44593
upperneck 37.8983 -0.656213 0.531976
head 15.2573 -0.480133 0.35992
rclavicle -2.31584e-014 2.0276e-014
rhumerus 2.80087 28.0239 -62.7111
rradius 100.303
rwrist -35.0914
rhand -5.56341 -42.2757
rfingers 7.12502
rthumb 20.252 -71.2399
lclavicle -2.31584e-014 2.0276e-014
lhumerus 19.5447 -26.267 53.4259
lradius 85.5718
lwrist 57.6359
lhand -22.4024 -23.8165
lfingers 7.12502
lthumb 4.02024 6.12528
rfemur -56.8994 0.316945 17.9438
rtibia 31.4151
rfoot 36.3593 -2.76789
rtoes 1.32342
lfemur -33.2034 3.26145 -29.2496
ltibia 43.4909
lfoot -19.3021 2.22211
ltoes 13.2795
378
root 4.70487 16.7307 2.23893 10.2851 -7.8177 -1.17016
lowerback 2.74093 -0.802557 -0.827984
upperback 0.564078 -1.10047 -0.653739
thorax -0.955306 -0.548274 -0.166719
lowerneck -12.1358 -0.553212 -1.56162
upperneck 37.9784 -0.779088 0.600106
head 15.3449 -0.539216 0.389435
rclavicle -3.47873e-015 3.97569e-016
rhumerus 2.24652 28.2664 -63.1154
rradius 100.28
rwrist -34.9327
rhand -5.47724 -42.2097
rfingers 7.12502
rthumb 20.3348 -71.1651
lclavicle -3.47873e-015 3.97569e-016
lhumerus 19.059 -26.5521 53.7944
lradius 85.6713
lwrist 57.5328
lhand -22.0946 -23.7288
lfingers 7.12502
lthumb 4.31742 6.20718
rfemur -56.5531 0.0485924 17.8734
rtibia 31.5763
rfoot 37.2735 -3.34943
rtoes 5.40054
lfemur -32.7982 2.58348 -29.0218
ltibia 43.4872
lfoot -19.3349 2.18071
ltoes 13.212
379
root 4.71592 16.7045 2.22715 10.6263 -8.35719 -1.36925
lowerback 2.847 -0.616561 -0.647913
upperback 0.371424 -0.849827 -0.599557
thorax -1.21455 -0.422738 -0.218231
lowerneck -12.2608 -0.60012 -1.67598
upperneck 38.1033 -0.828207 0.632698
head 15.439 -0.572174 0.415737
rclavicle 1.42131e-014 1.90833e-014
rhumerus 1.62067 28.6676 -63.4953
rradius 100.231
rwrist -34.7737
rhand -5.59543 -42.1995
rfingers 7.12502
rthumb 20.2212 -71.167
lclavicle 1.42131e-014 1.90833e-014
lhumerus 18.1575 -27.0385 54.4589
lradius 85.8245
lwrist 57.4631
lhand -22.3694 -23.0695
lfingers 7.12502
lthumb 4.05203 6.87167
rfemur -57.2008 0.0363321 18.4342
rtibia 31.6963
rfoot 35.7993 -2.95354
rtoes -0.193122
lfemur -33.318 2.64416 -28.9342
ltibia 43.5804
lfoot -19.2601 2.59767
ltoes 13.4515
380
root 4.7016 16.718 2.24058 10.1915 -7.7058 -0.975074
lowerback 3.08683 -0.831716 -1.14784
upperback 0.544712 -1.15367 -0.589794
thorax -1.16097 -0.572872 0.0855635
lowerneck -12.3012 -0.574978 -1.72543
upperneck 38.0467 -0.781754 0.655554
head 15.42 -0.55559 0.441841
rclavicle -1.25234e-014 -1.82882e-014
rhumerus 1.0507 29.0524 -63.8722
rradius 100.171
rwrist -34.6095
rhand -5.70538 -42.0573
rfingers 7.12502
rthumb 20.1156 -71.0359
lclavicle -1.25234e-014 -1.82882e-014
lhumerus 17.4581 -27.5034 55.011
lradius 85.8701
lwrist 57.4662
lhand -22.6767 -22.6576
lfingers 7.12502
lthumb 3.75527 7.28905
rfemur -56.7166 -0.263274 17.8877
rtibia 31.8754
rfoot 34.9214 -4.07091
rtoes -0.646206
lfemur -32.6723 1.97798 -29.1508
ltibia 43.511
lfoot -19.3961 2.7065
ltoes 13.6907
381
root 4.70325 16.7116 2.24467 10.2059 -7.70664 -0.802042
lowerback 2.9142 -0.832493 -1.27343
upperback 0.670751 -1.15483 -0.65143
thorax -0.933986 -0.574697 0.0887192
lowerneck -12.3649 -0.542037 -1.67199
upperneck 37.9522 -0.738126 0.640618
head 15.3869 -0.530224 0.432865
rclavicle -1.63997e-014 8.74653e-015
rhumerus 0.366343 29.3453 -64.3317
rradius 100.272
rwrist -34.5394
rhand -5.95724 -41.6441
rfingers 7.12502
rthumb 19.8735 -70.6479
lclavicle -1.63997e-014 8.74653e-015
lhumerus 17.1816 -27.9157 55.2449
lradius 85.8657
lwrist 57.7873
lhand -22.5652 -22.5338
lfingers 7.12502
lthumb 3.863 7.41092
rfemur -56.8572 -0.425784 17.7901
rtibia 31.9918
rfoot 35.0401 -3.66496
rtoes -1.25616
lfemur -32.7044 1.69083 -29.3276
ltibia 43.6064
lfoot -19.4818 2.93858
ltoes 13.8303
382
root 4.70097 16.7055 2.24262 10.2531 -7.63546 -0.98377
lowerback 2.99058 -0.816396 -1.06436
upperback 0.693192 -1.12758 -0.610206
thorax -0.957255 -0.561451 0.0139036
lowerneck -12.3289 -0.585311 -1.66217
upperneck 37.9029 -0.783872 0.585446
head 15.3542 -0.554829 0.40037
rclavicle 1.98785e-014 7.95139e-015
rhumerus -0.500945 29.558 -64.8588
rradius 100.356
rwrist -34.4325
rhand -5.79769 -41.7004
rfingers 7.12502
rthumb 20.0268 -70.6884
lclavicle 1.98785e-014 7.95139e-015
lhumerus 16.8171 -28.5694 55.461
lradius 85.9893
lwrist 58.1072
lhand -22.6548 -22.005
lfingers 7.12502
lthumb 3.77641 7.94124
rfemur -56.9916 -0.413647 17.9861
rtibia 32.1782
rfoot 35.5222 -3.46468
rtoes 0.216774
lfemur -32.7772 1.49568 -29.0933
ltibia 43.6602
lfoot -19.411 2.93197
ltoes 14.188
